<?xml version="1.0" encoding="UTF-8"?>
<!DOCTYPE svg PUBLIC "-//W3C//DTD SVG 1.1//EN" "http://www.w3.org/Graphics/SVG/1.1/DTD/svg11.dtd">
<svg xmlns="http://www.w3.org/2000/svg" xml:space="preserve" width="297mm" height="210mm" version="1.1" style="shape-rendering:geometricPrecision; text-rendering:geometricPrecision; image-rendering:optimizeQuality; fill-rule:evenodd; clip-rule:evenodd"
viewBox="0 0 29700 21000"
 xmlns:xlink="http://www.w3.org/1999/xlink"
 xmlns:xodm="http://www.corel.com/coreldraw/odm/2003">
 <defs>
  <style type="text/css">
   <![CDATA[
    .fil0 {fill:#4D4D4D}
    .fil12 {fill:#4D4D4D;fill-rule:nonzero}
    .fil11 {fill:#FAD3D8;fill-opacity:0.501961}
    .fil5 {fill:url(#id0);fill-opacity:0.549020}
    .fil7 {fill:url(#id1);fill-opacity:0.549020}
    .fil9 {fill:url(#id2);fill-opacity:0.549020}
    .fil8 {fill:url(#id3);fill-opacity:0.549020}
    .fil3 {fill:url(#id4);fill-opacity:0.549020}
    .fil4 {fill:url(#id5);fill-opacity:0.549020}
    .fil6 {fill:url(#id6);fill-opacity:0.549020}
    .fil1 {fill:url(#id7);fill-opacity:0.549020}
    .fil2 {fill:url(#id8);fill-opacity:0.549020}
    .fil10 {fill:url(#id9);fill-opacity:0.549020}
   ]]>
  </style>
  <linearGradient id="id0" gradientUnits="userSpaceOnUse" x1="14918.27" y1="10753.87" x2="20371.14" y2="12883.17">
   <stop offset="0" style="stop-opacity:1; stop-color:#E9374F"/>
   <stop offset="0.290196" style="stop-opacity:1; stop-color:#F18593"/>
   <stop offset="1" style="stop-opacity:1; stop-color:#FAD3D8"/>
  </linearGradient>
  <linearGradient id="id1" gradientUnits="userSpaceOnUse" x1="14867.01" y1="10483.77" x2="18829.09" y2="7598.17">
   <stop offset="0" style="stop-opacity:1; stop-color:#FAD3D8"/>
   <stop offset="0.309804" style="stop-opacity:1; stop-color:#FCE9EB"/>
   <stop offset="1" style="stop-opacity:1; stop-color:white"/>
  </linearGradient>
  <linearGradient id="id2" gradientUnits="userSpaceOnUse" x1="12487.42" y1="14138.23" x2="15193.63" y2="10891.53">
   <stop offset="0" style="stop-opacity:1; stop-color:white"/>
   <stop offset="0.741176" style="stop-opacity:1; stop-color:#FDE9EC"/>
   <stop offset="1" style="stop-opacity:1; stop-color:#FAD3D8"/>
  </linearGradient>
  <linearGradient id="id3" gradientUnits="userSpaceOnUse" x1="14966.11" y1="10593.31" x2="18957.6" y2="12189.5">
   <stop offset="0" style="stop-opacity:1; stop-color:#FAD3D8"/>
   <stop offset="0.290196" style="stop-opacity:1; stop-color:#FCE9EB"/>
   <stop offset="1" style="stop-opacity:1; stop-color:white"/>
  </linearGradient>
  <linearGradient id="id4" gradientUnits="userSpaceOnUse" x1="9835.54" y1="9447.99" x2="15243.03" y2="10518.13">
   <stop offset="0" style="stop-opacity:1; stop-color:#FAD3D8"/>
   <stop offset="0.741176" style="stop-opacity:1; stop-color:#F28594"/>
   <stop offset="1" style="stop-opacity:1; stop-color:#E9374F"/>
  </linearGradient>
  <linearGradient id="id5" gradientUnits="userSpaceOnUse" xlink:href="#id4" x1="11833.45" y1="15288.35" x2="15261.76" y2="10881.32">
  </linearGradient>
  <linearGradient id="id6" gradientUnits="userSpaceOnUse" x1="14344.22" y1="6443.34" x2="14986.62" y2="10557.39">
   <stop offset="0" style="stop-opacity:1; stop-color:white"/>
   <stop offset="0.658824" style="stop-opacity:1; stop-color:#FDE9EC"/>
   <stop offset="1" style="stop-opacity:1; stop-color:#FAD3D8"/>
  </linearGradient>
  <linearGradient id="id7" gradientUnits="userSpaceOnUse" x1="14199.08" y1="5162.55" x2="14994.17" y2="10577.36">
   <stop offset="0" style="stop-opacity:1; stop-color:#FAD3D8"/>
   <stop offset="0.658824" style="stop-opacity:1; stop-color:#F28594"/>
   <stop offset="1" style="stop-opacity:1; stop-color:#E9374F"/>
  </linearGradient>
  <linearGradient id="id8" gradientUnits="userSpaceOnUse" x1="14870.74" y1="10706.8" x2="20392.12" y2="6592.92">
   <stop offset="0" style="stop-opacity:1; stop-color:#E9374F"/>
   <stop offset="0.309804" style="stop-opacity:1; stop-color:#F18593"/>
   <stop offset="1" style="stop-opacity:1; stop-color:#FAD3D8"/>
  </linearGradient>
  <linearGradient id="id9" gradientUnits="userSpaceOnUse" xlink:href="#id2" x1="11081.91" y1="9736.27" x2="15146.16" y2="10664.2">
  </linearGradient>
 </defs>
 <g id="Слой_x0020_1">
  <metadata id="CorelCorpID_0Corel-Layer"/>
  <path class="fil1" d="M14927.85 10485.88c-258.98,-30.48 -423.17,-71.4 -769.62,-207.34 -902.53,-354.23 -1960.56,-1205.12 -2437.13,-3274.51 -493.58,-2143.05 2543.02,-1470.53 2670.08,-1666.96 553.87,-856.27 2430.19,-806.28 2200.22,2279.75 -58.02,778.55 -241.54,1356.94 -461.44,1782.81 -431.88,971 -1213.31,1083.22 -1202.11,1086.25z"/>
  <path class="fil2" d="M14927.83 10485.86c-215.62,-1013.46 452.66,-3584.41 2122.85,-4129.09 1265.3,-412.63 2637.51,-63.36 2530.46,846.93 -46.37,394.45 825.74,635.04 880.38,1070.76 222.49,1773.66 -1443.12,3160.58 -4209.75,2583.49 -1080.22,15.75 -1322.82,-366.81 -1323.94,-372.09z"/>
  <path class="fil3" d="M14399.85 9183.74c-671.21,-512.51 -1000.57,-691.44 -2002.9,-1190.18 -946.68,-471.08 -1643.78,-493.64 -2307.09,145.29 -933.39,899.07 276.3,1222.44 -211.6,1753.46 -905.95,986.1 21.98,1956.91 658.79,2140.31 673.83,194.03 2040.51,-8.3 3086.1,-458.68 651.5,-280.65 1263.17,-366.43 1304.7,-1088.06 89.69,-224.84 73.46,-842.8 -528,-1302.14z"/>
  <path class="fil4" d="M10835.72 12333.62c278.91,-737.98 1771.48,-1581.39 2964.33,-1842.9 442.14,-96.91 1030.36,-221.61 1125.91,-16.04 1322.74,456.97 1354.55,3670.55 -316.74,4576.63 -179.24,97.15 -2177.65,892.33 -2306.23,-414.5 -74.93,-761.6 -2440.05,270.81 -1467.27,-2303.19z"/>
  <path class="fil5" d="M16222 10040.35c982.83,-186.74 1580.59,238.01 2807.22,444.04 2507.71,421.2 1157.74,3832.33 -186.99,3398.57 -651.4,-210.13 960.45,1147.34 -1613.95,1235.5 -1026.58,35.14 -1738.53,-980.51 -2232.84,-2144.99 -265.92,-626.37 -331.77,-2101.98 -78,-2501.74 126.03,-198.5 1047.36,-382.53 1304.56,-431.38z"/>
  <path class="fil6" d="M14932.6 10493.38c-185.47,-21.86 -333.59,-125.14 -581.7,-222.5 -646.36,-253.69 -1513.39,-842.09 -1745.4,-2345.1 -356.26,-2308.08 1837.72,-1043.77 1912.23,-1193.82 509.01,-1025.19 1740.43,-577.43 1575.73,1632.68 -41.55,557.57 -172.99,971.8 -330.47,1276.8 -309.3,695.39 -838.41,849.74 -830.39,851.94z"/>
  <path class="fil7" d="M14932.61 10493.38c-130.34,-612.63 333.34,-2245.98 1342.95,-2575.21 -167.08,68.47 392.07,-895.8 1501.55,-602.22 1109.48,293.59 1042.23,1666.58 1075.24,1929.97 134.46,1072.13 -1387.32,1742.01 -3059.72,1393.17 -652.98,9.52 -859.37,-142.52 -860.02,-145.71z"/>
  <path class="fil8" d="M15885.61 10138.54c646.87,-122.91 1060.55,67.08 1847.63,292.25 2434.52,696.44 790.06,2737.67 -95,2452.19 919.9,1528.42 -1709.45,1189.67 -2559.91,-813.95 -174.99,-412.26 -318.29,-1307.5 -151.26,-1570.61 111.03,-243.01 789.26,-327.73 958.54,-359.88z"/>
  <path class="fil9" d="M11987.54 11816.23c235.61,-521.9 1285.8,-1147.83 2151.61,-1337.64 320.93,-70.34 719.36,-141.91 788.72,7.3 983.48,-33.48 692.26,2515.75 -201.39,3302.94 -893.65,787.18 -1580.65,647.69 -1673.95,-300.86 -54.38,-552.77 -2084.15,585.69 -1064.99,-1671.74z"/>
  <path class="fil10" d="M14484.41 9710.18c-464.05,-336.48 -691.8,-453.96 -1384.82,-781.41 -654.54,-309.28 -1362.39,-456.41 -1819.82,-35.67 -570.46,524.72 144.18,858.75 -193.13,1207.39 -626.4,647.41 -190.78,1228.65 727.01,1480.11 465.82,127.63 1410.82,-5.46 2133.75,-301.15 450.45,-184.26 1065.99,-331.64 980.05,-786.69 111.14,-185.08 -27.16,-481.04 -443.04,-782.58z"/>
  <path class="fil11" d="M14526.97 10251.89c391.51,-417.36 225.45,-328.53 589.52,-254.32 328.08,66.9 698.25,560.54 427.99,529.29 37.23,723.24 -213.05,459.57 -572.15,646.77 -48.92,25.48 -502,67.39 -435.03,-205.66 24.38,-99.46 -239.29,-134.14 -158.82,-529.3 8.52,-41.87 140.16,-177.92 148.49,-186.78z"/>
  <path class="fil12" d="M12879.17 13728.11l-2616.28 -6090.55 990.5 0 1312.92 3123.15c77.88,180.34 142.09,348.38 192.64,501.4 50.55,154.38 90.17,300.57 120.22,438.55 34.16,-146.18 77.88,-297.83 131.16,-456.31 53.28,-157.11 116.13,-318.33 188.54,-483.64l1308.82 -3123.15 985.04 0 -2613.56 6090.55zm4139.61 -3614.98l363.41 0c453.58,0 773.27,-61.48 961.81,-185.8 187.17,-124.33 281.44,-333.36 281.44,-625.73 0,-321.06 -86.07,-545.11 -259.58,-674.9 -173.51,-129.79 -501.4,-194 -983.67,-194l-363.41 0 0 1680.43zm0 2590.33l327.89 0c333.35,0 583.37,-13.66 748.68,-39.62 165.31,-27.33 295.1,-73.78 392.1,-140.72 117.49,-76.51 207.66,-181.71 271.88,-311.5 64.21,-131.15 95.63,-274.6 95.63,-433.08 0,-185.81 -38.25,-349.75 -116.13,-487.74 -77.87,-139.35 -188.53,-247.28 -331.99,-323.79 -90.16,-46.45 -194,-79.24 -310.12,-101.1 -116.13,-20.49 -270.51,-31.42 -463.15,-31.42l-286.9 0 -327.89 0 0 1868.97zm-934.49 795.13l0 -5861.03 1478.24 0c422.16,0 733.65,23.23 934.48,68.31 202.2,45.09 372.98,120.23 515.06,224.06 181.71,133.89 322.43,308.76 422.16,524.63 99.74,217.22 150.29,454.94 150.29,717.25 0,312.86 -72.41,573.81 -215.87,782.84 -144.81,210.4 -353.84,356.58 -628.45,438.55 341.55,53.28 609.33,209.03 804.7,467.24 195.36,256.85 293.73,582.01 293.73,974.11 0,236.35 -40.99,461.78 -124.33,676.27 -81.97,213.13 -199.46,394.84 -351.11,543.75 -161.21,162.58 -359.31,277.34 -597.03,344.29 -237.72,66.94 -635.29,99.73 -1195.43,99.73l-1486.44 0z"/>
 </g>
</svg>
